<svg width="150mm" height="150mm" version="1.1" viewBox="0 0 150 150" xmlns="http://www.w3.org/2000/svg">
 <g display="none">
  <g fill="none" stroke="#000" stroke-linecap="round" stroke-linejoin="round" stroke-width="1.7544">
   <path d="m19.805 14.156c-0.32153-2.0688 0.28056-4.2639 1.6126-5.8791 1.1555-1.4012 2.8047-2.3425 4.5489-2.8487s3.5853-0.6 5.3992-0.50969c1.2435 0.061903 2.5099 0.21635 3.6315 0.75688 0.56077 0.27027 1.0792 0.63681 1.4919 1.1028s0.71709 1.0338 0.83855 1.6444c0.13464 0.67677 0.04052 1.3903-0.22219 2.0283-0.2627 0.63807-0.68908 1.2022-1.2002 1.6658-1.0223 0.92709-2.3502 1.4412-3.6768 1.8216-3.9595 1.1354-8.2101 1.2393-12.22 0.29889l0.07372 2.1269c1.2504 9.6018 2.0626 19.261 2.433 28.936 0.30743 8.0305 0.3107 16.071 0.07372 24.104-0.28704 9.73-0.92672 19.451-1.9949 29.127-1.5145 13.718-3.8908 27.34-7.1103 40.761"/>
   <path d="m37.334 8.4533c0.55426 11.096 0.99665 22.197 1.3271 33.302 0.44322 14.896 0.68329 29.841-0.84412 44.664-0.69739 6.7682-1.7616 13.493-2.8791 20.205-1.5976 9.5956-3.3063 19.178-5.4926 28.657-0.53661 2.3265-1.1019 4.6464-1.6957 6.9589"/>
   <path d="m13.443 139.55c0.92678 2.552 3.1564 4.5912 5.7808 5.2871 1.4804 0.39255 3.0679 0.37271 4.5381-0.0567 1.4702-0.42943 2.8188-1.2672 3.8551-2.3949"/>
   <path d="m38.071 14.479c4.9097 3.6061 11.097 5.4339 17.178 5.0746 4.4096-0.26055 8.6711-1.6191 12.873-2.9806 4.2022-1.3615 8.4514-2.7469 12.857-3.0641 5.3886-0.38807 10.757 0.83942 15.965 2.2767 5.2079 1.4373 10.397 3.1013 15.775 3.6188 6.871 0.6612 13.829-0.58695 20.349-2.8545 2.0279-0.70529 4.0216-1.5088 5.9719-2.4067-1.5131 2.1969-2.4495 4.7874-2.691 7.444-0.29997 3.2999 0.45354 6.5981 1.2913 9.804 0.83776 3.2059 1.7716 6.4301 1.8421 9.7429 0.0974 4.5786-1.4588 9.0221-3.2008 13.257s-3.7074 8.4379-4.5021 12.948c-0.88452 5.0199-0.24687 10.298 1.8077 14.963-3.6671 1.49-7.5594 2.4243-11.503 2.7614-4.699 0.4016-9.4463-0.0433-14.061-1.0163-7.0612-1.4888-13.907-4.2144-21.11-4.6399-6.3768-0.37661-12.704 1.0707-18.937 2.4689-3.4148 0.76604-6.8471 1.5223-10.338 1.7739-3.4907 0.25156-7.0665-0.01809-10.342-1.2517-3.2313-1.2172-6.1036-3.3708-8.1776-6.1315"/>
   <path d="m72.835 34.936c0.47103-2.561 1.6388-4.9904 3.3445-6.958 1.9312-2.2277 4.5636-3.857 7.4406-4.5012 2.877-0.64417 5.9842-0.28266 8.5949 1.0871 1.9619 1.0293 3.6274 2.6122 4.767 4.5122 1.1396 1.8999 1.7515 4.1107 1.7647 6.3262 0.01321 2.2088-0.56731 4.4174-1.6573 6.3386-1.09 1.9212-2.6861 3.551-4.5795 4.6886-1.666 1.0009-3.6033 1.6268-5.5423 1.4955-1.4027-0.095-2.776-0.58965-3.9171-1.4108l-0.0026 13.482"/>
   <path d="m80.044 71.008c-0.27315-0.5512-0.37585-1.1854-0.29062-1.7947 0.08524-0.60924 0.35805-1.1909 0.77199-1.646 0.34553-0.37987 0.78747-0.67112 1.2724-0.84004 0.48493-0.16892 1.0119-0.21528 1.519-0.13491 1.0144 0.16075 1.9279 0.84992 2.3694 1.7772 0.24525 0.51507 0.34985 1.0965 0.29747 1.6646-0.05238 0.56806-0.26184 1.1211-0.60054 1.5802-0.3387 0.45905-0.80583 0.82261-1.3347 1.0364-0.52892 0.21375-1.1181 0.27678-1.6799 0.1778-0.98209-0.17303-1.8584-0.86119-2.2594-1.7743"/>
  </g>
  <g fill-opacity=".4">
   <path transform="scale(.26458)" d="m417.05 315.13c-7.1457-1.2718-22.931-4.9961-35.079-8.2762-53.768-14.519-64.532-14.487-134.47 0.39514-43.848 9.3307-70.189 5.1795-89.305-14.074l-7.2981-7.3505-0.27192-66.26c-0.24608-59.963-1.8508-121.17-3.8745-147.77l-0.76463-10.051 10.806 5.1659c15.944 7.6221 28.366 10.395 46.418 10.361 17.21-0.03213 28.418-2.1739 53.899-10.3 33.64-10.728 35.73-11.12 58.6-11 22.806 0.11976 17.152-0.99566 79.252 15.634 18.059 4.8358 18.375 4.8713 44.173 4.9577 28.848 0.09658 36.945-1.1077 61.592-9.1618 7.4364-2.43 13.732-4.2075 13.989-3.9498 0.25766 0.25766-0.49304 4.2097-1.6682 8.7823-3.0299 11.789-1.777 27.232 4.1002 50.538 8.8849 35.233 7.7778 46.893-8.2785 87.184-10.27 25.772-12.465 32.334-14.614 43.688-1.9165 10.128-0.90528 34.759 1.8318 44.62 1.1059 3.9841 2.1908 7.9971 2.411 8.9178 0.525 2.1951-10.834 6.1209-24.78 8.5644-14.565 2.5519-40.448 2.2701-56.67-0.61707zm-91.977-40.936c8.6374-10.012 1.1643-26.687-11.96-26.687-9.7993 0-17.824 10.367-15.09 19.494 3.6148 12.065 19.258 16.225 27.05 7.1932zm-7.7085-67.834 0.35368-23.598 4.8366 1.3354c15.529 4.2879 36.778-5.9613 46.701-22.526 16.089-26.858 6.1249-60.667-21.713-73.677-6.2139-2.904-8.9245-3.3465-20.787-3.394-12.679-0.05075-14.254 0.23562-22.32 4.0568-15.109 7.1581-26.154 19.791-31.047 35.51-2.7145 8.7217-2.1863 12.027 1.8287 11.441 2.0072-0.29271 3.4361-2.4585 5.5784-8.4551 5.2924-14.814 14.467-25.221 27.711-31.433 5.9901-2.8096 9.067-3.3794 18.248-3.3794 9.446 0 12.107 0.52236 18.398 3.6115 17.787 8.7347 27.403 29.075 22.603 47.811-3.8547 15.046-13.348 26.12-26.761 31.217-8.3296 3.165-12.914 3.1015-20.794-0.28815-10.562-4.5438-10.336-5.126-10.336 26.525 0 15.267 0.41443 28.172 0.92095 28.678 0.50653 0.50651 2.1143 0.75012 3.5728 0.54133 2.5433-0.36406 2.6664-1.3456 3.0056-23.978z" fill="#ffcb00" stroke="#000" stroke-linecap="round" stroke-linejoin="round" stroke-width="7.3656"/>
   <path transform="scale(.26458)" d="m75.147 543.77c-6.1298-1.4555-12.04-5.3172-16.407-10.721l-3.8981-4.8231 4.7879-21.714c17.377-78.809 26.087-150.06 29.483-241.17 2.3213-62.282-0.76592-137.3-7.9147-192.32-0.66866-5.1467-1.2338-10.241-1.2559-11.32-0.03358-1.6424 2.5529-1.9712 15.875-2.0181 16.927-0.05951 28.907-2.3822 37.191-7.2107 2.4124-1.406 4.5327-2.3865 4.7117-2.1788 0.6814 0.7904 3.2678 69.028 4.7772 126.04 2.7069 102.24-0.78236 149.3-18.523 249.81-11.312 64.09-21.452 108.69-25.44 111.9-6.0128 4.8335-16.427 7.3867-23.387 5.734z" fill="#ffcb00" stroke="#000" stroke-linecap="round" stroke-linejoin="round" stroke-width="7.3656"/>
   <path transform="scale(.26458)" d="m82.825 51.45c-4.1301-0.76361-4.227-0.8281-4.4304-2.9504-0.31972-3.3364 2.1658-10.448 4.9029-14.028 3.2285-4.2229 9.1309-8.1796 15.134-10.146 4.4018-1.4414 5.9182-1.59 16.224-1.59 10.488 0 11.619 0.1156 14.608 1.4933 7.587 3.497 10.091 9.2942 6.6441 15.38-2.7893 4.9248-9.4888 8.3711-21.631 11.127-5.8859 1.336-25.658 1.784-31.452 0.71271z" fill="#fc0"/>
   <path transform="scale(.26458)" d="m311.07 271.62c-2.5724-0.85195-4.171-2.3759-5.5585-5.2988-1.7926-3.7764-0.0415-8.4899 3.8944-10.482 1.219-0.61711 1.5487-0.67862 3.6372-0.67862 2.1787 0 2.3711 0.0403 3.7442 0.78487 4.3399 2.3531 5.974 7.265 3.8293 11.51-1.726 3.4165-6.0758 5.314-9.5467 4.1645z" fill="#ffcb00"/>
  </g>
 </g>
 <g fill="#ff5100" stroke="#000" stroke-linecap="round" stroke-linejoin="round">
  <path d="m34.911 90.351c-2.7997-7.5162-2.9272-15.949-0.64716-23.638 3.1914-10.764 11.088-19.962 21.066-25.108 2.9754-1.5346 6.1269-2.7274 9.3727-3.5475 11.595-3.4328 24.634-1.6247 34.858 4.8333 1.0215 0.64526 2.0158 1.3342 2.968 2.078 4.6813 3.6564 8.2873 8.6286 10.516 14.135 2.229 5.506 3.0978 11.531 2.7394 17.46-0.33012 5.4616-1.7011 10.879-4.1957 15.749-2.4946 4.8698-6.1258 9.18-10.622 12.298-3.0684 2.1278-6.5039 3.6865-10.042 4.8792-5.2865 1.782-10.831 2.7645-16.402 3.0538-6.6967 0.34778-13.444-0.30457-19.951-1.9287-8.9697-3.6531-16.28-11.187-19.66-20.263z" stroke-width="1.0708"/>
  <path d="m83.443 68.335c1.0424 2.0647 1.4286 4.4546 1.0895 6.7425-0.33912 2.2879-1.402 4.4631-2.9985 6.1366-2.1666 2.2711-5.344 3.5756-8.4753 3.3592-2.1449-0.14824-4.232-0.99227-5.8955-2.3545-1.6635-1.3622-2.8989-3.2334-3.526-5.29-0.85886-2.817-0.54746-5.9788 0.87862-8.5555 0.92923-1.679 2.3138-3.1031 3.9659-4.0792s3.5675-1.5018 5.4864-1.5057c1.919-0.0039 3.8364 0.51401 5.4925 1.4835s3.0463 2.3879 3.9824 4.0631z" stroke-width=".90359"/>
  <g stroke-width="1.0708">
   <path d="m47.906 67.058-7.776 5.0668m3.7303 16.309 8.2984 1.9269"/>
   <path d="m40.21 72.022c0.77135 0.49319 1.4689 1.1015 2.0625 1.7986 1.0947 1.2856 1.8219 2.8574 2.2502 4.4907 0.58822 2.2431 0.62276 4.6452-0.01867 6.8737-0.32048 1.1135-0.80666 2.1791-1.4376 3.1509-1.3892-1.1573-2.5061-2.6394-3.2358-4.2937-0.65136-1.4766-0.9932-3.0766-1.1381-4.684-0.14918-1.6546-0.08975-3.3482 0.39617-4.9369 0.25904-0.84692 0.63774-1.6572 1.1213-2.3991z"/>
   <path d="m77.166 98.123 7.7354 5.1322m12.817-10.334-1.7863-8.5577"/>
   <path d="m84.777 103.22c0.1072-0.92255 0.35066-1.8292 0.72001-2.6813 0.66836-1.542 1.743-2.8897 3.0156-3.9874 1.7173-1.4813 3.8281-2.5302 6.0705-2.8699 1.1195-0.1696 2.2655-0.16326 3.383 0.0187-0.41907 1.7679-1.2579 3.4349-2.4279 4.825-1.0235 1.2161-2.2895 2.214-3.6533 3.0303-1.3915 0.83287-2.9134 1.4896-4.5208 1.7039-0.85802 0.11439-1.7329 0.10113-2.5871-0.0392z"/>
   <path d="m92.879 58.246 0.34365-9.4635m-15.177-6.0703-6.2422 5.9467"/>
   <path d="m93.26 48.908c-0.8253 0.37524-1.7086 0.62268-2.6087 0.7308-1.6408 0.19708-3.3177-0.07174-4.8716-0.63427-2.141-0.77507-4.0845-2.1211-5.4961-3.9077-0.71691-0.90738-1.2957-1.9237-1.7103-3.0032 1.6981-0.52555 3.5236-0.63398 5.2719-0.31314 1.5515 0.28473 3.0297 0.90004 4.3969 1.6869 1.4165 0.81522 2.7392 1.8321 3.7308 3.1313 0.5365 0.70296 0.97143 1.4833 1.2871 2.3094z"/>
   <path d="m33.26 68.285-2.4994 2.3076 0.08926 9.9306 2.0031 1.6408"/>
   <path d="m52.782 110.1 1.7737 2.9339 9.5201 1.6373 1.9189-1.7441"/>
   <path d="m101.61 104.85 3.3568-0.0964 6.175-7.6328-0.49616-2.5844"/>
   <path d="m113.04 58.394 0.76152-3.3651-5.6079-8.083-2.5555-0.16231"/>
   <path d="m73.77 36.391-2.7107-2.0394-9.4252 2.1413-1.1465 2.3555"/>
   <path d="m80.656 69.031c0.72955 1.4452 0.98966 3.1228 0.73216 4.7211s-1.0313 3.1093-2.1776 4.2525c-1.6616 1.6571-4.0754 2.491-6.4173 2.3405-1.5742-0.10117-3.1259-0.63225-4.4006-1.5614s-2.2627-2.2592-2.7331-3.7649c-0.61252-1.9606-0.31879-4.1581 0.66527-5.9611 0.70264-1.2874 1.7467-2.3876 3-3.1493s2.7132-1.182 4.1798-1.1946c1.4666-0.01266 2.9357 0.38338 4.1928 1.1389 1.2571 0.75552 2.2976 1.8691 2.9585 3.1784z"/>
  </g>
 </g>
</svg>
