<svg width="150mm" height="150mm" version="1.1" viewBox="0 0 150 150" xmlns="http://www.w3.org/2000/svg">
 <g>
  <g transform="matrix(.76796 0 0 .76796 19.931 15.676)">
   <path d="m19.805 14.156c-0.32153-2.0688 0.28056-4.2639 1.6126-5.8791 1.1555-1.4012 2.8047-2.3425 4.5489-2.8487s3.5853-0.6 5.3992-0.50969c1.2435 0.061903 2.5099 0.21635 3.6315 0.75688 0.56077 0.27027 1.0792 0.63681 1.4919 1.1028s0.71709 1.0338 0.83855 1.6444c0.13464 0.67677 0.04052 1.3903-0.22219 2.0283-0.2627 0.63807-0.68908 1.2022-1.2002 1.6658-1.0223 0.92709-2.3502 1.4412-3.6768 1.8216-3.9595 1.1354-8.2101 1.2393-12.22 0.29889l0.07372 2.1269c1.2504 9.6018 2.0626 19.261 2.433 28.936 0.30743 8.0305 0.3107 16.071 0.07372 24.104-0.28704 9.73-0.92672 19.451-1.9949 29.127-1.5145 13.718-3.8908 27.34-7.1103 40.761" fill="none" stroke="#000" stroke-linecap="round" stroke-linejoin="round" stroke-width="1.7544"/>
   <g fill="#ecff98">
    <g stroke="#000" stroke-linecap="round" stroke-linejoin="round">
     <path d="m37.334 8.4533c0.55426 11.096 0.99665 22.197 1.3271 33.302 0.44322 14.896 0.68329 29.841-0.84412 44.664-0.69739 6.7682-1.7616 13.493-2.8791 20.205-1.5976 9.5956-3.3063 19.178-5.4926 28.657-0.53661 2.3265-1.1019 4.6464-1.6957 6.9589" stroke-width="1.7544"/>
     <path d="m13.443 139.55c0.92678 2.552 3.1564 4.5912 5.7808 5.2871 1.4804 0.39255 3.0679 0.37271 4.5381-0.0567 1.4702-0.42943 2.8188-1.2672 3.8551-2.3949" stroke-width="1.7544"/>
     <path d="m109.34 83.379c-1.8906-0.33649-6.0672-1.3219-9.2812-2.1898-14.226-3.8414-17.074-3.833-35.578 0.10455-11.602 2.4687-18.571 1.3704-23.629-3.7238l-1.931-1.9448-0.07195-17.531c-0.06511-15.865-0.4897-32.059-1.0251-39.097l-0.20231-2.6594 2.8592 1.3668c4.2186 2.0167 7.5051 2.7503 12.281 2.7413 4.5534-0.0085 7.5189-0.57518 14.261-2.7252 8.9006-2.8384 9.4535-2.9422 15.505-2.9104 6.0342 0.03169 4.5381-0.26344 20.969 4.1364 4.778 1.2795 4.8617 1.2889 11.688 1.3117 7.6328 0.02555 9.775-0.29309 16.296-2.4241 1.9676-0.64295 3.6332-1.1132 3.7013-1.045 0.0682 0.06817-0.13045 1.1138-0.44138 2.3237-0.80166 3.1192-0.47017 7.2052 1.0848 13.372 2.3508 9.3221 2.0579 12.407-2.1904 23.067-2.7173 6.8188-3.2981 8.555-3.8666 11.559-0.50707 2.6797-0.23952 9.1967 0.48466 11.806 0.2926 1.0541 0.57967 2.1159 0.63792 2.3595 0.13891 0.58079-2.8664 1.6195-6.5563 2.266-3.8536 0.6752-10.702 0.60062-14.994-0.16327z" stroke-width="1.9488"/>
     <path transform="scale(.26458)" d="m75.147 543.77c-6.1298-1.4555-12.04-5.3172-16.407-10.721l-3.8981-4.8231 4.7879-21.714c17.377-78.809 26.087-150.06 29.483-241.17 2.3213-62.282-0.76592-137.3-7.9147-192.32-0.66866-5.1467-1.2338-10.241-1.2559-11.32-0.03358-1.6424 2.5529-1.9712 15.875-2.0181 16.927-0.05951 28.907-2.3822 37.191-7.2107 2.4124-1.406 4.5327-2.3865 4.7117-2.1788 0.6814 0.7904 3.2678 69.028 4.7772 126.04 2.7069 102.24-0.78236 149.3-18.523 249.81-11.312 64.09-21.452 108.69-25.44 111.9-6.0128 4.8335-16.427 7.3867-23.387 5.734z" stroke-width="7.3656"/>
    </g>
    <path transform="scale(.26458)" d="m82.825 51.45c-4.1301-0.76361-4.227-0.8281-4.4304-2.9504-0.31972-3.3364 2.1658-10.448 4.9029-14.028 3.2285-4.2229 9.1309-8.1796 15.134-10.146 4.4018-1.4414 5.9182-1.59 16.224-1.59 10.488 0 11.619 0.1156 14.608 1.4933 7.587 3.497 10.091 9.2942 6.6441 15.38-2.7893 4.9248-9.4888 8.3711-21.631 11.127-5.8859 1.336-25.658 1.784-31.452 0.71271z"/>
   </g>
  </g>
 </g>
 <g display="none" fill="#ff5100" stroke="#000" stroke-linecap="round" stroke-linejoin="round">
  <path d="m34.911 90.351c-2.7997-7.5162-2.9272-15.949-0.64716-23.638 3.1914-10.764 11.088-19.962 21.066-25.108 2.9754-1.5346 6.1269-2.7274 9.3727-3.5475 11.595-3.4328 24.634-1.6247 34.858 4.8333 1.0215 0.64526 2.0158 1.3342 2.968 2.078 4.6813 3.6564 8.2873 8.6286 10.516 14.135 2.229 5.506 3.0978 11.531 2.7394 17.46-0.33012 5.4616-1.7011 10.879-4.1957 15.749-2.4946 4.8698-6.1258 9.18-10.622 12.298-3.0684 2.1278-6.5039 3.6865-10.042 4.8792-5.2865 1.782-10.831 2.7645-16.402 3.0538-6.6967 0.34778-13.444-0.30457-19.951-1.9287-8.9697-3.6531-16.28-11.187-19.66-20.263z" stroke-width="1.0708"/>
  <path d="m83.443 68.335c1.0424 2.0647 1.4286 4.4546 1.0895 6.7425-0.33912 2.2879-1.402 4.4631-2.9985 6.1366-2.1666 2.2711-5.344 3.5756-8.4753 3.3592-2.1449-0.14824-4.232-0.99227-5.8955-2.3545-1.6635-1.3622-2.8989-3.2334-3.526-5.29-0.85886-2.817-0.54746-5.9788 0.87862-8.5555 0.92923-1.679 2.3138-3.1031 3.9659-4.0792s3.5675-1.5018 5.4864-1.5057c1.919-0.0039 3.8364 0.51401 5.4925 1.4835s3.0463 2.3879 3.9824 4.0631z" stroke-width=".90359"/>
  <g stroke-width="1.0708">
   <path d="m47.906 67.058-7.776 5.0668m3.7303 16.309 8.2984 1.9269"/>
   <path d="m40.21 72.022c0.77135 0.49319 1.4689 1.1015 2.0625 1.7986 1.0947 1.2856 1.8219 2.8574 2.2502 4.4907 0.58822 2.2431 0.62276 4.6452-0.01867 6.8737-0.32048 1.1135-0.80666 2.1791-1.4376 3.1509-1.3892-1.1573-2.5061-2.6394-3.2358-4.2937-0.65136-1.4766-0.9932-3.0766-1.1381-4.684-0.14918-1.6546-0.08975-3.3482 0.39617-4.9369 0.25904-0.84692 0.63774-1.6572 1.1213-2.3991z"/>
   <path d="m77.166 98.123 7.7354 5.1322m12.817-10.334-1.7863-8.5577"/>
   <path d="m84.777 103.22c0.1072-0.92255 0.35066-1.8292 0.72001-2.6813 0.66836-1.542 1.743-2.8897 3.0156-3.9874 1.7173-1.4813 3.8281-2.5302 6.0705-2.8699 1.1195-0.1696 2.2655-0.16326 3.383 0.0187-0.41907 1.7679-1.2579 3.4349-2.4279 4.825-1.0235 1.2161-2.2895 2.214-3.6533 3.0303-1.3915 0.83287-2.9134 1.4896-4.5208 1.7039-0.85802 0.11439-1.7329 0.10113-2.5871-0.0392z"/>
   <path d="m92.879 58.246 0.34365-9.4635m-15.177-6.0703-6.2422 5.9467"/>
   <path d="m93.26 48.908c-0.8253 0.37524-1.7086 0.62268-2.6087 0.7308-1.6408 0.19708-3.3177-0.07174-4.8716-0.63427-2.141-0.77507-4.0845-2.1211-5.4961-3.9077-0.71691-0.90738-1.2957-1.9237-1.7103-3.0032 1.6981-0.52555 3.5236-0.63398 5.2719-0.31314 1.5515 0.28473 3.0297 0.90004 4.3969 1.6869 1.4165 0.81522 2.7392 1.8321 3.7308 3.1313 0.5365 0.70296 0.97143 1.4833 1.2871 2.3094z"/>
   <path d="m33.26 68.285-2.4994 2.3076 0.08926 9.9306 2.0031 1.6408"/>
   <path d="m52.782 110.1 1.7737 2.9339 9.5201 1.6373 1.9189-1.7441"/>
   <path d="m101.61 104.85 3.3568-0.0964 6.175-7.6328-0.49616-2.5844"/>
   <path d="m113.04 58.394 0.76152-3.3651-5.6079-8.083-2.5555-0.16231"/>
   <path d="m73.77 36.391-2.7107-2.0394-9.4252 2.1413-1.1465 2.3555"/>
   <path d="m80.656 69.031c0.72955 1.4452 0.98966 3.1228 0.73216 4.7211s-1.0313 3.1093-2.1776 4.2525c-1.6616 1.6571-4.0754 2.491-6.4173 2.3405-1.5742-0.10117-3.1259-0.63225-4.4006-1.5614s-2.2627-2.2592-2.7331-3.7649c-0.61252-1.9606-0.31879-4.1581 0.66527-5.9611 0.70264-1.2874 1.7467-2.3876 3-3.1493s2.7132-1.182 4.1798-1.1946c1.4666-0.01266 2.9357 0.38338 4.1928 1.1389 1.2571 0.75552 2.2976 1.8691 2.9585 3.1784z"/>
  </g>
 </g>
</svg>
